<svg width="308" height="96" viewBox="0 0 308 96" fill="none" xmlns="http://www.w3.org/2000/svg">
<path d="M95.7747 91.7482C94.6846 94.3717 95.3557 96.2635 96.7236 94.4231L131.924 47.0646C133.086 45.5019 133.608 42.6777 132.79 42.3802L118.584 37.2096C118.004 36.9984 118.072 35.4161 118.729 33.8358L131.372 3.40896C132.462 0.785451 131.791 -1.10636 130.423 0.734047L95.2221 48.0925C94.0606 49.6552 93.5384 52.4794 94.356 52.777L108.562 57.9476C109.142 58.1587 109.074 59.741 108.418 61.3214L95.7747 91.7482Z" fill="#9555F5"/>
<path d="M188.5 57.0225C193.747 57.0225 198 61.2758 198 66.5225C198 71.7692 193.747 76.0225 188.5 76.0225C183.253 76.0225 179 71.7692 179 66.5225C179 61.2758 183.253 57.0225 188.5 57.0225ZM249.5 57.0225C254.747 57.0225 259 61.2758 259 66.5225C259 71.7692 254.747 76.0225 249.5 76.0225C244.253 76.0225 240 71.7692 240 66.5225C240 61.2758 244.253 57.0225 249.5 57.0225ZM265.179 61.418L274.687 61.4609C273.986 60.5361 273.419 59.4963 272.988 58.3408C271.988 55.6439 271.807 52.4166 272.443 48.6592C273.049 45.0531 274.299 41.9011 276.193 39.2041C278.102 36.5073 280.504 34.4091 283.397 32.9092C286.307 31.4092 289.565 30.6592 293.171 30.6592C295.807 30.6592 298.118 31.0676 300.103 31.8857C302.102 32.7039 303.731 33.8937 304.988 35.4541C306.246 37.0147 307.095 38.9012 307.534 41.1133C307.989 43.3102 307.989 45.7956 307.534 48.5684L307.079 51.4766H284.364L284.262 52.0225C284.08 53.1437 284.148 54.1437 284.466 55.0225C284.784 55.9012 285.337 56.5908 286.125 57.0908C286.913 57.5908 287.929 57.8408 289.171 57.8408C290.019 57.8408 290.822 57.7271 291.579 57.5C292.352 57.2576 293.034 56.9086 293.625 56.4541C294.231 55.9845 294.716 55.4165 295.079 54.75H306.534C305.716 57.1741 304.42 59.2805 302.647 61.0684C300.89 62.8409 298.723 64.2193 296.147 65.2041C293.587 66.1737 290.686 66.6592 287.443 66.6592C286.449 66.6592 285.5 66.6062 284.597 66.5049L261.998 66.4043C261.948 61.0397 258.521 56.4832 253.738 54.7598L259.597 19.4766H272.142L265.179 61.418ZM78.1309 30.6592C80.6155 30.6592 82.7971 30.9541 84.6758 31.5449C86.5544 32.1206 88.1077 32.9313 89.335 33.9766C90.5774 35.0069 91.4492 36.2193 91.9492 37.6133C92.4643 38.992 92.5852 40.4921 92.3125 42.1133L88.3125 66.0225H76.585L77.4033 61.1133H77.1309C76.2218 62.4163 75.1989 63.4694 74.0625 64.2725C72.9413 65.0755 71.7141 65.6588 70.3809 66.0225C69.0627 66.3861 67.6459 66.5683 66.1309 66.5684C63.9187 66.5684 62.0167 66.2038 60.4258 65.4766C58.8503 64.7341 57.6989 63.6131 56.9717 62.1133C56.2596 60.5981 56.1002 58.6888 56.4941 56.3857C56.8123 54.4768 57.4113 52.8484 58.29 51.5C59.1688 50.1515 60.2595 49.0453 61.5625 48.1816C62.8655 47.318 64.328 46.6586 65.9492 46.2041C67.5855 45.7345 69.3128 45.4313 71.1309 45.2949C73.1003 45.1434 74.6986 44.9538 75.9258 44.7266C77.153 44.4993 78.0697 44.1888 78.6758 43.7949C79.2818 43.401 79.6454 42.8708 79.7666 42.2041V42.1133C79.9029 41.2043 79.6611 40.5073 79.04 40.0225C78.434 39.5376 77.5851 39.2949 76.4941 39.2949C75.3124 39.2949 74.2894 39.5532 73.4258 40.0684C72.5776 40.5835 71.9939 41.386 71.6758 42.4766H60.1309C60.6157 40.3555 61.6085 38.401 63.1084 36.6133C64.6235 34.8104 66.631 33.3706 69.1309 32.2949C71.646 31.2041 74.6461 30.6592 78.1309 30.6592ZM203.034 45.8408H203.579L218.762 19.4766H234.488L227.553 61.251L233.722 61.2783L238.75 31.1133H251.296L247.449 54.1904C241.595 55.1568 237.112 60.1908 237.002 66.293L200.993 66.1328C200.847 61.3754 198.044 57.2888 194.017 55.3047L190.397 38.9316H190.034L187.494 54.0615C181.225 54.5607 176.26 59.6861 176.011 66.0225H173.125L180.853 19.4766H196.579L203.034 45.8408ZM38.7275 29.6592H18.6367L17.3633 37.6592H35.4541L33.7275 47.8408H15.6367L12.6367 66.0225H0L7.72754 19.4766H40.4541L38.7275 29.6592ZM50.1025 66.0225H37.5566L45.2842 19.4766H57.8291L50.1025 66.0225ZM148.841 37.75H149.204C150.34 35.5227 151.932 33.7873 153.978 32.5449C156.023 31.2875 158.341 30.6592 160.932 30.6592C163.386 30.6592 165.432 31.2196 167.068 32.3408C168.705 33.462 169.864 35.0071 170.546 36.9766C171.228 38.9463 171.356 41.2045 170.932 43.75L167.204 66.0225H154.659L157.932 46.3857C158.204 44.6587 157.984 43.3031 157.272 42.3184C156.575 41.3335 155.432 40.8408 153.841 40.8408C152.811 40.8408 151.871 41.0679 151.022 41.5225C150.189 41.9618 149.492 42.5984 148.932 43.4316C148.386 44.2497 148.023 45.2344 147.841 46.3857L144.568 66.0225H132.022L139.75 19.4766H151.841L148.841 37.75ZM206.259 61.1562L215.196 61.1963L218.853 39.1133H218.488L206.259 61.1562ZM78.4033 50.75C78.0701 50.8863 77.6989 51.0146 77.29 51.1357C76.8962 51.2418 76.4793 51.3481 76.04 51.4541C75.6158 51.5602 75.1606 51.6591 74.6758 51.75C74.2062 51.8409 73.7215 51.9316 73.2217 52.0225C72.2218 52.174 71.381 52.424 70.6992 52.7725C70.0175 53.1057 69.4872 53.5226 69.1084 54.0225C68.7296 54.5073 68.4942 55.0531 68.4033 55.6592C68.2671 56.6134 68.4869 57.3555 69.0625 57.8857C69.6534 58.4008 70.4942 58.6591 71.585 58.6592C72.5244 58.6592 73.4493 58.4623 74.3584 58.0684C75.2674 57.6744 76.0478 57.1056 76.6992 56.3633C77.3506 55.621 77.7674 54.7196 77.9492 53.6592L78.4033 50.75ZM292.079 39.4766C291.049 39.4766 290.08 39.6966 289.171 40.1357C288.277 40.5751 287.511 41.1888 286.875 41.9766C286.29 42.7191 285.888 43.5836 285.666 44.5684H296.625C296.777 43.5684 296.678 42.6892 296.329 41.9316C295.996 41.159 295.458 40.56 294.716 40.1357C293.989 39.6964 293.109 39.4766 292.079 39.4766ZM247.432 16.0225C249.144 16.0225 250.507 16.583 251.522 17.7041C252.538 18.8102 252.917 20.1591 252.659 21.75C252.417 23.3105 251.598 24.6586 250.204 25.7949C248.825 26.916 247.28 27.4765 245.568 27.4766C243.871 27.4766 242.5 26.9161 241.454 25.7949C240.409 24.6587 240.023 23.3104 240.296 21.75C240.569 20.1591 241.402 18.8102 242.796 17.7041C244.19 16.5831 245.735 16.0225 247.432 16.0225ZM273.015 9.51953L272.986 14.5195L180.985 13.9951L181.015 8.99511L273.015 9.51953Z" fill="#069CFF"/>
</svg>
