<svg width="96" height="130" viewBox="0 0 96 130" fill="none" xmlns="http://www.w3.org/2000/svg">
<path d="M65.2188 19.9034C83.222 26.8248 96 44.279 96 64.7198C96 91.2295 74.5097 112.72 48 112.72C44.4242 112.72 40.9406 112.325 37.5879 111.583L40.8965 107.132C43.2074 107.516 45.5801 107.72 48 107.72C71.7482 107.72 91 88.4681 91 64.7198C91 46.3606 79.493 30.6918 63.2988 24.5245L65.2188 19.9034Z" fill="#069CFF"/>
<path d="M48 16.7199C50.8353 16.7199 53.6131 16.9661 56.3135 17.4376L52.9209 22.0011C51.306 21.8171 49.6642 21.7199 48 21.7199C24.2518 21.7199 5 40.9716 5 64.7198C5 82.1288 15.3461 97.1202 30.2246 103.884L28.3047 108.505C11.6172 100.987 0 84.2105 0 64.7198C0 38.2102 21.4903 16.7199 48 16.7199Z" fill="#069CFF"/>
<path d="M60.627 30.9552C73.9792 36.2282 83.4266 49.2472 83.4268 64.4738L83.415 65.4034C82.9219 84.8699 66.9867 100.499 47.4014 100.499L46.4717 100.487C46.2648 100.482 46.0585 100.473 45.8525 100.464L49.6016 95.42C65.7095 94.2913 78.4267 80.8687 78.4268 64.4738C78.4266 51.3289 70.2511 40.0941 58.708 35.5743L60.627 30.9552Z" fill="#069CFF"/>
<path d="M48.123 28.4572L44.2988 33.6017C28.6211 35.1586 16.3762 48.3864 16.376 64.4738C16.376 77.127 23.952 88.0092 34.8145 92.837L32.8945 97.4581C20.4903 91.9946 11.7509 79.74 11.3877 65.4034L11.376 64.4738C11.3762 44.5779 27.5055 28.4486 47.4014 28.4484L48.123 28.4572Z" fill="#069CFF"/>
<path d="M22.5176 124.568C21.0375 128.13 21.9487 130.699 23.806 128.2L71.5986 63.9004C73.1756 61.7788 73.8845 57.9443 72.7745 57.5403L53.4865 50.5201C52.699 50.2335 52.791 48.0851 53.6825 45.9395L70.8483 4.6284C72.3284 1.06642 71.4172 -1.50213 69.5599 0.996628L21.7673 65.2961C20.1903 67.4177 19.4814 71.2522 20.5914 71.6562L39.8794 78.6765C40.6669 78.9631 40.5749 81.1115 39.6834 83.2571L22.5176 124.568Z" fill="#9555F5"/>
</svg>
